<?xml version="1.0" encoding="UTF-8"?>
<svg width="32" height="32" viewBox="0 0 32 32" fill="none" xmlns="http://www.w3.org/2000/svg">
  <!-- Corpo do foguete -->
  <path d="M16 4C14.5 6 12 10 12 16C12 22 14.5 26 16 28C17.5 26 20 22 20 16C20 10 17.5 6 16 4Z" fill="#FF4B4B"/>
  
  <!-- Asas do foguete -->
  <path d="M12 16L8 20V24L12 22V16Z" fill="#FF7676"/>
  <path d="M20 16L24 20V24L20 22V16Z" fill="#FF7676"/>
  
  <!-- Janela do foguete -->
  <circle cx="16" cy="14" r="2" fill="#FFE5E5"/>
  
  <!-- Chamas do foguete -->
  <path d="M14 28C14 30 15 31 16 31C17 31 18 30 18 28C18 26 16 24 16 24C16 24 14 26 14 28Z" fill="#FFA500"/>
  
  <!-- Brilho -->
  <circle cx="16" cy="14" r="1" fill="white"/>
</svg> 