<?xml version="1.0" encoding="UTF-8"?>
<svg width="1200" height="630" viewBox="0 0 1200 630" fill="none" xmlns="http://www.w3.org/2000/svg">
  <!-- Fundo -->
  <rect width="1200" height="630" fill="#1A1A1A"/>
  
  <!-- Grade de fundo -->
  <path d="M0 0h1200v630H0z" fill="#1A1A1A" fill-opacity=".8"/>
  <path d="M50 50h1100v530H50z" stroke="#333" stroke-opacity=".5" stroke-width="1"/>
  
  <!-- Foguete grande -->
  <g transform="translate(200,165) scale(3)">
    <!-- Corpo do foguete -->
    <path d="M16 4C14.5 6 12 10 12 16C12 22 14.5 26 16 28C17.5 26 20 22 20 16C20 10 17.5 6 16 4Z" fill="#FF4B4B"/>
    
    <!-- Asas do foguete -->
    <path d="M12 16L8 20V24L12 22V16Z" fill="#FF7676"/>
    <path d="M20 16L24 20V24L20 22V16Z" fill="#FF7676"/>
    
    <!-- Janela do foguete -->
    <circle cx="16" cy="14" r="2" fill="#FFE5E5"/>
    
    <!-- Chamas do foguete -->
    <path d="M14 28C14 30 15 31 16 31C17 31 18 30 18 28C18 26 16 24 16 24C16 24 14 26 14 28Z" fill="#FFA500"/>
    
    <!-- Brilho -->
    <circle cx="16" cy="14" r="1" fill="white"/>
  </g>
  
  <!-- Texto -->
  <text x="600" y="200" text-anchor="middle" font-family="Inter, system-ui" font-size="72" font-weight="bold" fill="white">
    LeadRocket
  </text>
  
  <!-- Subtítulo -->
  <text x="600" y="280" text-anchor="middle" font-family="Inter, system-ui" font-size="32" fill="#999">
    Dashboard inteligente para gerenciamento de leads
  </text>
  
  <!-- Integrações -->
  <text x="600" y="350" text-anchor="middle" font-family="Inter, system-ui" font-size="24" fill="#666">
    Integrações com WhatsApp e Instagram
  </text>
  
  <!-- URL -->
  <text x="600" y="550" text-anchor="middle" font-family="Inter, system-ui" font-size="20" fill="#666">
    lead-dashboard-mauve.vercel.app
  </text>
</svg> 